<svg version="1.0" xmlns="http://www.w3.org/2000/svg"
 width="1536.000000pt" height="1536.000000pt" viewBox="0 0 1536.000000 1536.000000"
 preserveAspectRatio="xMidYMid meet" role="img" aria-label="B&amp;B Digital logo">

<g transform="translate(0.000000,1536.000000) scale(0.100000,-0.100000)"
fill="#000000" stroke="none">
<path d="M0 7680 l0 -7680 7680 0 7680 0 0 7680 0 7680 -7680 0 -7680 0 0
-7680z m2233 5031 c56 -27 271 -128 477 -226 206 -97 571 -269 810 -382 239
-113 561 -265 715 -338 154 -73 420 -199 590 -280 171 -80 457 -217 637 -302
l327 -156 116 -214 c180 -334 182 -337 415 -493 181 -122 177 -120 335 -120
74 0 135 3 135 6 0 15 142 637 158 694 11 36 17 79 15 95 -5 37 70 389 89 414
50 69 147 175 169 187 15 7 123 42 242 77 l214 65 215 -63 c119 -35 228 -69
244 -76 15 -8 63 -55 106 -105 l78 -92 45 -203 c25 -112 43 -209 40 -217 -3
-7 15 -95 39 -195 25 -100 63 -265 86 -367 23 -102 43 -193 46 -202 5 -16 20
-18 132 -18 153 0 165 5 363 137 206 138 209 142 397 493 l99 185 74 39 c41
22 439 213 884 424 446 211 947 449 1115 529 856 406 1622 764 1627 759 13
-12 -282 -647 -330 -713 -68 -92 -236 -243 -398 -355 -19 -14 -21 -17 -7 -17
27 -1 656 87 822 115 82 14 155 24 163 22 24 -5 -655 -646 -748 -707 -30 -20
-84 -49 -118 -66 l-64 -30 432 -5 433 -5 -169 -116 c-92 -64 -260 -178 -373
-252 -113 -74 -252 -167 -309 -206 l-104 -71 -516 0 -516 0 -88 -88 c-48 -48
-87 -91 -87 -96 0 -5 372 -7 850 -4 468 3 847 1 843 -3 -21 -21 -797 -515
-857 -546 -27 -14 -72 -15 -356 -12 l-325 4 0 -135 0 -135 108 -3 107 -3 0 61
0 60 55 0 c30 0 55 -2 55 -5 0 -3 -11 -28 -25 -55 -14 -27 -25 -52 -25 -55 0
-3 145 -5 321 -5 l322 0 -279 -185 -279 -185 -408 0 -409 0 195 -202 c108
-112 194 -205 192 -207 -3 -2 -145 -28 -317 -58 -295 -52 -325 -55 -527 -60
l-213 -5 198 -199 199 -199 -381 0 c-302 0 -399 3 -465 15 -94 18 -224 58
-283 87 -24 13 -35 15 -30 6 4 -7 44 -67 87 -133 l79 -120 -348 -3 c-192 -1
-359 0 -371 3 -11 3 -110 92 -218 197 -208 203 -223 217 -234 200 -3 -6 -22
-86 -40 -179 l-35 -169 26 -45 c13 -24 97 -154 185 -289 88 -135 249 -384 358
-555 108 -170 209 -325 222 -343 25 -33 25 -34 7 -51 -176 -163 -846 -744
-1349 -1171 -130 -110 -240 -200 -243 -200 -16 0 -1592 1361 -1600 1381 -4 9
543 868 717 1127 99 148 95 132 66 274 -15 68 -31 147 -37 176 -6 30 -16 52
-23 52 -7 0 -102 -87 -212 -193 -109 -107 -208 -199 -220 -205 -15 -9 -126
-12 -373 -12 -293 0 -351 2 -347 14 3 7 39 66 81 130 41 64 73 116 70 116 -3
0 -17 -6 -32 -14 -54 -27 -188 -67 -276 -81 -69 -11 -183 -15 -471 -15 l-380
1 201 198 201 199 -211 5 c-200 5 -227 8 -525 61 -173 31 -316 58 -318 59 -2
2 82 93 186 203 l189 199 -407 5 -406 5 -270 180 -270 180 313 3 c171 1 312 4
312 7 0 2 -13 27 -30 55 -16 28 -30 53 -30 55 0 3 24 5 54 5 60 0 66 -7 66
-82 l0 -38 110 0 110 0 0 135 0 134 -338 3 -337 3 -245 156 c-491 311 -619
394 -620 399 0 3 380 4 845 2 465 -1 845 1 845 5 0 5 -42 51 -94 102 l-95 94
-508 -6 -508 -7 -415 281 c-228 154 -444 301 -480 325 l-64 44 429 2 430 3
-65 32 c-103 50 -140 81 -450 373 -160 151 -322 303 -358 337 -55 51 -63 62
-45 63 12 0 118 -16 235 -35 201 -33 720 -105 754 -105 9 0 -20 26 -65 58
-221 158 -346 291 -421 447 -46 96 -233 516 -251 563 -11 29 -5 28 134 -37z
m1890 -8051 c160 -23 252 -115 251 -250 0 -106 -58 -188 -193 -270 -13 -9 -2
-24 73 -95 50 -47 93 -85 97 -85 4 0 20 33 35 73 15 39 31 76 36 81 5 6 43 -1
98 -19 66 -21 90 -33 90 -46 0 -23 -24 -90 -63 -173 l-31 -69 63 -58 64 -57
-21 -29 c-11 -15 -43 -50 -71 -77 -57 -56 -52 -56 -140 21 l-45 39 -55 -33
c-116 -70 -272 -96 -417 -70 -206 37 -319 147 -318 312 0 111 53 196 174 278
25 16 47 31 49 33 1 1 -15 28 -37 59 -85 119 -77 262 20 352 38 35 123 73 185
82 80 12 80 12 156 1z m4882 -15 c86 -22 176 -69 232 -120 l48 -44 -65 -66
c-89 -91 -93 -93 -140 -55 -146 116 -378 112 -500 -10 -72 -72 -110 -204 -89
-316 22 -118 86 -201 194 -250 50 -24 74 -28 145 -28 56 0 103 6 137 18 l53
17 2 162 3 162 123 3 122 3 0 -225 0 -225 -62 -35 c-200 -109 -434 -133 -624
-61 -173 65 -304 206 -349 376 -19 69 -19 229 0 298 47 177 214 342 395 391
119 32 261 34 375 5z m-5804 -23 c78 -26 153 -87 180 -147 25 -55 25 -175 0
-230 -10 -22 -36 -58 -59 -79 l-41 -39 43 -28 c86 -54 125 -130 125 -244 1
-165 -108 -269 -313 -295 -39 -5 -212 -10 -383 -10 l-313 0 0 551 0 550 348
-3 c325 -4 351 -5 413 -26z m2366 5 c75 -25 143 -75 177 -131 24 -39 31 -63
34 -118 5 -88 -14 -142 -75 -205 -41 -42 -44 -48 -28 -57 59 -36 97 -71 122
-113 26 -44 28 -56 28 -154 0 -98 -2 -108 -27 -146 -53 -81 -141 -125 -286
-144 -42 -5 -216 -8 -387 -7 l-310 3 -3 548 -2 548 352 -3 c300 -3 361 -6 405
-21z m1571 7 c194 -40 346 -165 412 -342 31 -79 38 -233 16 -326 -35 -149
-134 -274 -267 -340 -134 -65 -159 -69 -511 -73 l-318 -5 0 551 0 551 295 0
c231 0 313 -3 373 -16z m892 -534 l0 -551 -132 3 -133 3 -3 548 -2 547 135 0
135 0 0 -550z m1728 3 l-3 -548 -130 0 -130 0 -3 548 -2 547 135 0 135 0 -2
-547z m1107 442 l0 -100 -177 -3 -178 -2 0 -445 0 -445 -130 0 -130 0 0 445 0
445 -175 0 -175 0 0 105 0 105 483 -2 482 -3 0 -100z m770 -60 c40 -88 150
-329 244 -535 95 -206 175 -381 178 -387 4 -10 -27 -13 -135 -13 l-140 0 -49
115 -48 115 -264 -2 -263 -3 -42 -100 c-22 -55 -45 -106 -49 -112 -6 -9 -45
-13 -138 -13 -71 0 -129 3 -129 6 0 9 44 108 258 579 107 237 203 449 213 473
l19 43 136 -3 136 -3 73 -160z m805 -275 l0 -440 275 0 275 0 0 -110 0 -110
-405 0 -405 0 0 550 0 550 130 0 130 0 0 -440z m-8187 -1160 c26 -13 36 -43
18 -54 -5 -3 -25 1 -45 9 -43 18 -122 19 -156 2 -36 -18 -53 -59 -39 -90 13
-30 32 -39 137 -67 91 -25 128 -53 138 -106 8 -45 -21 -103 -66 -129 -51 -29
-168 -27 -232 4 -48 23 -55 34 -40 59 7 10 19 8 58 -10 100 -45 214 -21 222
46 5 39 -21 63 -87 82 -158 46 -191 69 -191 136 0 94 66 142 185 135 39 -3 82
-10 98 -17z m547 -1 c60 -27 88 -54 116 -114 42 -88 28 -188 -34 -257 -51 -57
-111 -82 -193 -81 -170 1 -276 149 -227 317 15 50 89 127 138 143 59 18 150
15 200 -8z m648 -6 c3 -23 3 -23 -132 -23 -156 0 -148 7 -143 -110 l2 -65 118
-3 117 -3 0 -24 0 -25 -120 0 -120 0 0 -95 c0 -95 0 -95 -25 -95 l-25 0 0 235
0 235 163 -2 c159 -3 162 -3 165 -25z m487 -3 c0 -23 -4 -25 -50 -26 -27 -1
-65 -2 -82 -3 l-33 -1 0 -205 0 -205 -30 0 -30 0 -2 208 -3 207 -77 3 c-76 3
-78 4 -78 28 l0 24 193 -2 192 -3 0 -25z m226 -170 c37 -107 69 -188 72 -180
3 8 34 97 68 198 60 178 63 183 88 180 24 -3 30 -16 92 -198 58 -169 68 -192
76 -170 5 14 36 101 68 193 32 93 64 171 71 174 45 17 41 -5 -36 -234 l-77
-228 -33 0 -33 0 -59 175 c-32 96 -63 179 -67 183 -5 5 -30 -54 -56 -130 -86
-247 -77 -228 -111 -231 l-31 -3 -77 228 c-42 125 -76 232 -76 236 0 5 12 7
28 5 26 -3 30 -12 93 -198z m942 160 c33 -65 187 -412 187 -421 0 -5 -12 -9
-26 -9 -22 0 -30 9 -52 60 l-27 60 -128 0 -128 0 -26 -60 c-23 -53 -29 -60
-54 -60 -16 0 -29 2 -29 4 0 3 39 89 86 193 48 103 95 207 105 231 16 38 22
43 46 40 20 -2 33 -13 46 -38z m623 12 c101 -52 112 -179 23 -255 l-39 -34 50
-72 c28 -40 50 -74 50 -77 0 -2 -13 -4 -29 -4 -25 0 -35 10 -77 75 l-49 75
-77 0 -78 0 0 -75 0 -75 -30 0 -30 0 0 236 0 236 123 -4 c99 -4 130 -8 163
-26z m594 3 l0 -24 -132 -3 -133 -3 0 -75 0 -75 118 -3 117 -3 0 -24 0 -25
-120 0 -120 0 0 -80 0 -79 143 -3 c139 -3 142 -4 145 -25 l3 -23 -175 0 -176
0 0 228 c0 126 3 232 7 235 3 4 78 7 165 7 l158 0 0 -25z m498 -83 l3 -103
137 3 137 3 3 103 3 103 27 -3 27 -3 3 -232 2 -233 -30 0 -30 0 0 105 0 105
-140 0 -140 0 0 -105 0 -105 -30 0 -30 0 0 228 c0 126 3 232 7 236 4 4 16 6
28 4 18 -3 20 -11 23 -106z m840 94 c99 -35 155 -115 155 -222 0 -119 -73
-210 -188 -234 -190 -39 -339 124 -284 311 37 121 188 190 317 145z m382 -146
c0 -139 3 -166 19 -198 24 -47 55 -62 126 -62 46 0 60 5 85 28 41 36 49 78 50
250 l0 142 25 0 25 0 0 -170 c0 -122 -4 -180 -14 -203 -40 -97 -191 -133 -297
-71 -61 36 -74 79 -77 257 -2 87 -1 164 2 172 3 8 17 15 31 15 l25 0 0 -160z
m803 140 c26 -13 36 -43 18 -54 -5 -3 -25 1 -45 9 -19 8 -61 15 -91 15 -49 0
-60 -4 -86 -29 -54 -54 -30 -99 68 -126 142 -39 180 -64 189 -126 13 -85 -63
-145 -181 -143 -82 1 -165 33 -165 65 0 29 16 31 62 7 93 -49 219 -22 226 48
4 43 -22 62 -125 91 -48 13 -99 31 -111 39 -36 24 -55 77 -42 123 19 71 80
103 185 98 39 -3 82 -10 98 -17z m557 -5 l0 -25 -135 0 -135 0 0 -80 0 -80
120 0 120 0 0 -25 0 -25 -120 0 -120 0 0 -80 0 -80 140 0 140 0 0 -25 0 -25
-170 0 -170 0 0 228 c0 126 3 232 7 235 3 4 78 7 165 7 l158 0 0 -25z"/>
<path d="M2270 12582 c0 -18 193 -427 219 -466 36 -52 177 -190 256 -252 56
-44 142 -101 228 -153 l37 -23 0 136 0 136 -155 75 c-130 62 -155 77 -155 95
0 29 3 28 173 -54 l138 -65 -3 116 -3 117 -365 173 c-200 95 -365 173 -367
173 -2 0 -3 -4 -3 -8z"/>
<path d="M12720 12415 l-365 -174 -3 -116 c-1 -64 1 -114 5 -112 15 9 293 137
298 137 3 0 5 -10 5 -23 0 -19 -21 -32 -147 -91 -82 -38 -152 -72 -156 -76 -4
-4 -6 -66 -5 -139 l3 -132 84 51 c130 79 228 155 333 261 93 93 100 103 167
240 92 192 161 349 153 348 -4 0 -171 -79 -372 -174z"/>
<path d="M3062 12105 l3 -117 200 -95 c110 -52 270 -126 355 -165 239 -108
270 -125 270 -148 0 -11 -3 -20 -7 -20 -12 0 -399 177 -623 284 l-195 94 -3
-126 c-1 -69 -1 -131 2 -138 3 -7 161 -74 353 -149 l348 -137 135 -134 135
-134 -3 319 -3 320 -107 51 c-59 29 -264 126 -457 217 -192 91 -363 172 -378
180 l-28 14 3 -116z"/>
<path d="M11860 12009 c-228 -110 -440 -211 -470 -227 l-55 -27 -2 -320 -2
-320 134 138 134 139 338 130 c186 72 344 135 351 141 15 12 18 267 2 267 -5
0 -110 -48 -232 -106 -411 -196 -571 -266 -579 -253 -4 7 -5 18 -3 24 3 7 125
67 272 135 147 68 331 155 410 192 l142 68 0 110 c0 82 -3 110 -12 109 -7 0
-200 -91 -428 -200z"/>
<path d="M4120 11381 c0 -187 3 -346 6 -355 5 -14 36 -16 237 -16 l231 0 -73
74 -74 75 -47 -6 c-83 -10 -150 48 -150 130 0 142 174 187 251 65 16 -26 19
-43 14 -80 l-6 -47 102 -106 102 -105 236 0 236 0 195 -188 195 -189 36 96
c20 53 48 125 63 160 14 36 26 68 26 73 0 4 -42 28 -92 52 -51 24 -318 150
-593 281 -275 130 -581 275 -680 322 -99 47 -188 89 -197 94 -17 9 -18 -8 -18
-330z"/>
<path d="M11030 11616 c-107 -51 -454 -216 -770 -365 -316 -150 -579 -276
-583 -280 -5 -5 19 -82 53 -173 l61 -165 192 188 192 188 235 1 235 0 106 106
106 105 -10 38 c-8 31 -7 45 9 77 28 58 77 87 137 81 68 -6 108 -46 114 -114
10 -97 -51 -159 -145 -148 l-52 5 -63 -66 c-34 -37 -64 -70 -65 -75 -2 -6 92
-8 225 -7 l228 3 3 348 c1 191 -1 347 -5 346 -5 0 -96 -42 -203 -93z"/>
<path d="M2361 11646 c11 -11 321 -132 731 -287 249 -94 471 -179 493 -189 27
-12 154 -132 390 -369 l350 -351 270 0 270 0 246 -246 c214 -214 249 -245 265
-236 11 6 46 38 79 71 l59 61 -49 52 c-27 29 -146 151 -265 271 l-215 217
-301 0 -301 0 -332 335 -333 336 -176 68 c-97 38 -245 96 -327 129 l-150 61
-334 40 c-325 40 -379 45 -370 37z"/>
<path d="M12625 11609 c-170 -21 -328 -45 -350 -52 -22 -7 -172 -64 -333 -127
l-293 -113 -333 -339 -334 -338 -299 0 -298 0 -270 -271 -270 -270 75 -69 c41
-38 79 -70 85 -70 5 0 119 110 252 245 l243 245 272 0 273 -1 350 356 350 355
90 36 c50 19 236 89 415 155 316 117 750 286 759 295 10 10 -90 0 -384 -37z"/>
<path d="M2250 11544 c52 -49 156 -147 230 -218 74 -71 159 -144 188 -163 64
-41 182 -93 292 -127 79 -26 87 -26 382 -26 l301 0 -24 26 c-13 14 -37 34 -54
44 -16 10 -232 95 -480 190 -247 95 -551 213 -675 262 -124 50 -232 93 -240
96 -8 3 28 -35 80 -84z"/>
<path d="M7445 11577 c-165 -50 -171 -53 -217 -100 -27 -26 -48 -51 -48 -55 0
-4 70 -52 156 -107 85 -54 157 -102 160 -107 10 -16 35 -8 89 28 l55 37 0 178
c0 137 -3 179 -12 178 -7 0 -89 -24 -183 -52z"/>
<path d="M7720 11455 l0 -174 59 -41 c33 -22 63 -40 67 -40 17 0 334 213 334
225 0 12 -93 105 -105 105 -3 0 -82 23 -175 50 -93 28 -172 50 -175 50 -3 0
-5 -79 -5 -175z"/>
<path d="M13035 11564 c-147 -60 -358 -141 -998 -386 -193 -74 -246 -99 -280
-129 l-42 -38 299 -1 300 0 120 41 c230 78 286 115 536 354 52 50 128 121 169
158 40 37 70 67 65 67 -5 -1 -81 -30 -169 -66z"/>
<path d="M10947 11329 c-34 -26 -34 -53 -2 -85 27 -27 59 -26 83 4 43 55 -26
125 -81 81z"/>
<path d="M4337 11322 c-33 -36 -15 -85 35 -97 49 -12 84 46 58 96 -14 25 -71
26 -93 1z"/>
<path d="M7120 11333 c0 -5 -11 -69 -25 -143 -14 -74 -25 -143 -25 -152 0 -11
18 -27 48 -42 62 -31 77 -49 57 -66 -11 -9 -25 -9 -65 1 -27 7 -52 10 -55 8
-11 -12 -156 -650 -150 -657 5 -6 535 431 535 440 0 9 -44 38 -147 97 -40 23
-73 46 -73 51 0 8 54 26 132 45 35 9 52 30 72 89 9 27 16 51 16 52 0 1 -33 0
-72 -3 -65 -5 -76 -3 -101 17 -39 31 -56 70 -67 152 -7 62 -13 76 -37 95 -29
24 -43 29 -43 16z"/>
<path d="M8198 11317 c-21 -18 -27 -34 -33 -87 -14 -141 -60 -187 -173 -177
l-64 6 7 -36 c14 -76 28 -89 120 -119 47 -16 84 -33 82 -38 -2 -6 -43 -33 -91
-62 -48 -28 -95 -59 -104 -68 -16 -16 -15 -18 14 -40 16 -14 135 -112 264
-220 129 -107 236 -193 238 -191 5 5 -25 147 -90 430 -46 199 -53 222 -80 246
l-29 27 22 16 23 16 -27 151 c-15 84 -30 156 -33 160 -8 14 -17 11 -46 -14z"/>
<path d="M7274 11208 c11 -65 30 -88 74 -88 46 0 82 9 82 21 0 9 -143 109
-156 109 -4 0 -4 -19 0 -42z"/>
<path d="M8002 11198 c-39 -29 -68 -56 -64 -60 5 -5 31 -11 59 -15 47 -5 52
-3 68 20 19 29 33 107 19 107 -5 -1 -42 -24 -82 -52z"/>
<path d="M7590 11133 c-50 -45 -58 -59 -84 -139 -19 -58 -38 -97 -55 -112
l-26 -24 50 -52 c29 -29 75 -97 110 -161 l60 -110 3 163 c1 89 1 235 0 324
l-3 161 -55 -50z"/>
<path d="M7720 10862 c0 -177 2 -322 5 -322 2 0 29 49 59 108 38 74 72 124
107 160 l52 51 -30 25 c-22 19 -36 47 -57 114 -27 89 -36 102 -113 166 l-23
19 0 -321z"/>
<path d="M9551 10781 c-47 -86 -103 -190 -125 -231 -23 -43 -63 -97 -95 -128
-69 -67 -396 -287 -447 -301 -22 -6 -90 -11 -151 -11 -101 0 -113 -2 -113 -17
0 -20 165 -422 178 -435 4 -4 220 205 479 465 l472 472 -57 171 -57 172 -84
-157z"/>
<path d="M5726 10919 c-2 -8 -29 -84 -59 -169 l-56 -155 476 -474 c473 -473
476 -475 489 -449 22 41 174 415 174 427 0 7 -42 11 -125 11 -87 0 -136 4
-160 14 -45 19 -290 185 -381 258 -86 69 -110 104 -244 353 -56 105 -103 192
-106 194 -2 2 -5 -2 -8 -10z"/>
<path d="M2214 10913 c4 -4 156 -110 339 -235 l332 -227 465 -1 465 0 -95 95
-95 95 -196 0 -197 0 -16 -25 c-38 -58 -109 -79 -165 -50 -84 43 -107 135 -50
199 57 66 144 65 206 0 l32 -34 208 0 209 0 275 -277 274 -276 403 -5 c234 -3
402 -1 402 4 0 5 -39 49 -88 97 l-87 87 -275 0 -274 0 -281 280 -280 280 -759
0 c-418 0 -756 -3 -752 -7z"/>
<path d="M4320 10825 l95 -95 301 0 301 0 311 -312 311 -313 -424 -425 -425
-425 -742 -5 -743 -5 143 -92 142 -93 631 0 632 0 542 538 542 537 -391 393
-392 392 -464 0 -465 0 95 -95z"/>
<path d="M9815 10530 l-390 -391 543 -539 542 -540 635 0 635 0 143 95 142 95
-740 0 -740 1 -428 422 c-235 232 -427 427 -427 432 0 6 138 148 308 318 l307
307 300 0 300 0 95 95 95 95 -465 0 -465 0 -390 -390z"/>
<path d="M11355 10640 l-280 -280 -270 0 -270 0 -88 -88 c-48 -48 -87 -91 -87
-95 0 -4 179 -7 398 -7 l397 -1 275 281 275 280 213 0 213 0 30 35 c61 69 158
67 207 -5 20 -29 23 -44 19 -89 -3 -45 -9 -59 -35 -82 -61 -55 -144 -46 -193
21 l-23 30 -199 0 -200 0 -88 -87 c-49 -48 -89 -90 -89 -95 0 -4 204 -8 453
-8 l454 0 204 136 c249 166 479 325 479 330 0 2 -341 4 -758 4 l-757 0 -280
-280z"/>
<path d="M3056 10718 c-22 -30 -20 -54 5 -79 36 -36 99 -6 99 46 0 51 -75 74
-104 33z"/>
<path d="M12213 10714 c-15 -24 -15 -29 -2 -53 10 -18 24 -27 47 -29 41 -4 62
12 62 49 0 59 -74 83 -107 33z"/>
<path d="M7870 10625 c-22 -41 -23 -47 -11 -82 17 -47 120 -268 241 -518 l92
-190 65 70 c120 128 223 249 223 261 0 6 -57 61 -127 121 -172 147 -436 368
-449 376 -5 3 -21 -14 -34 -38z"/>
<path d="M7415 10623 c-22 -19 -146 -124 -275 -233 -129 -108 -241 -204 -248
-212 -10 -13 11 -41 134 -177 80 -89 148 -161 149 -159 4 4 253 523 308 641
l41 89 -23 44 c-13 24 -29 44 -35 44 -6 -1 -29 -17 -51 -37z"/>
<path d="M7767 10434 l-38 -79 3 -500 3 -501 195 204 c107 113 199 211 203
218 5 9 -35 108 -116 282 -69 147 -144 309 -168 361 l-44 93 -38 -78z"/>
<path d="M7547 10470 c-9 -19 -63 -134 -122 -255 -132 -270 -197 -415 -193
-431 3 -14 388 -424 397 -424 3 0 6 226 5 503 l-1 502 -36 70 -35 70 -15 -35z"/>
<path d="M2684 10081 c3 -4 66 -47 140 -95 l135 -86 246 0 246 0 -3 93 -3 92
-383 3 c-219 1 -381 -2 -378 -7z"/>
<path d="M3490 9995 l0 -95 95 0 95 0 0 95 0 95 -95 0 -95 0 0 -95z"/>
<path d="M3730 9995 l0 -95 210 0 211 0 -3 93 -3 92 -207 3 -208 2 0 -95z"/>
<path d="M4436 9936 l147 -154 56 1 c45 2 63 -3 90 -22 59 -42 77 -119 41
-178 -52 -86 -189 -82 -235 7 l-16 30 -162 -2 -162 -3 -3 -105 c-2 -58 0 -120
3 -137 l6 -33 267 0 c191 1 273 4 287 13 12 7 80 73 152 148 l132 135 -227
227 -227 227 -148 0 -148 0 147 -154z"/>
<path d="M4798 9993 c50 -54 138 -145 197 -203 l106 -105 101 103 102 103
-100 100 -101 99 -198 0 -197 0 90 -97z"/>
<path d="M10165 9990 l-100 -100 100 -100 100 -100 192 192 c106 106 193 196
193 200 0 5 -87 8 -193 8 l-192 0 -100 -100z"/>
<path d="M10548 9863 l-229 -228 149 -147 150 -148 270 0 271 0 6 53 c3 28 5
90 3 137 l-3 85 -162 3 -162 2 -16 -30 c-49 -95 -193 -92 -239 5 -32 68 -5
140 67 180 30 17 42 18 76 9 l41 -11 145 152 c80 84 145 156 145 159 0 3 -64
6 -142 6 l-142 0 -228 -227z"/>
<path d="M11217 10084 c-4 -4 -7 -47 -7 -96 l0 -88 215 0 216 0 -3 93 -3 92
-206 3 c-113 1 -208 -1 -212 -4z"/>
<path d="M11687 10083 c-4 -3 -7 -46 -7 -95 l0 -88 95 0 95 0 0 95 0 95 -88 0
c-49 0 -92 -3 -95 -7z"/>
<path d="M11917 10082 c-3 -4 -3 -46 0 -95 l6 -87 242 0 242 0 136 90 c76 49
137 92 137 95 0 8 -758 6 -763 -3z"/>
<path d="M9102 9818 c-145 -144 -268 -273 -274 -287 -9 -24 -88 -381 -88 -398
0 -4 148 141 330 322 l330 330 222 -222 c216 -215 224 -222 253 -215 47 13 96
-3 133 -43 31 -34 33 -41 31 -96 l-3 -60 175 -175 174 -174 184 0 c169 0 186
-2 217 -21 38 -23 43 -43 15 -59 -12 -6 -105 -10 -233 -10 l-213 0 -190 190
-189 189 -56 -5 c-44 -4 -61 -1 -87 15 -47 30 -67 74 -60 136 l5 52 -72 72
c-39 39 -76 71 -81 71 -6 0 -43 -33 -83 -73 l-72 -72 375 -375 375 -375 253 0
c246 0 257 1 485 39 127 21 232 42 232 46 0 4 -72 84 -161 179 l-161 171 -196
0 -197 0 -555 555 -555 554 -263 -261z"/>
<path d="M5438 9520 l-557 -550 -189 0 -189 0 -168 -172 c-144 -147 -166 -173
-149 -179 10 -5 114 -25 229 -46 199 -35 224 -37 464 -41 l254 -4 381 381 381
381 -75 75 -75 75 -80 -80 -81 -81 4 -57 c4 -51 1 -62 -22 -89 -34 -40 -76
-57 -131 -51 l-45 5 -187 -188 -187 -189 -222 0 c-199 0 -224 2 -244 18 l-22
18 32 27 32 27 195 0 196 0 174 173 174 172 -7 47 c-7 58 16 112 60 140 24 15
43 18 86 15 l55 -5 221 220 220 219 327 -326 c180 -179 327 -319 327 -310 0 8
-18 101 -40 207 l-40 193 -263 263 c-144 144 -266 262 -272 262 -6 0 -261
-247 -567 -550z"/>
<path d="M6824 10035 c-8 -22 -48 -119 -88 -215 -40 -96 -72 -177 -70 -179 1
-1 100 29 219 69 l216 72 -18 21 c-10 12 -65 74 -122 137 -57 63 -108 119
-113 125 -5 5 -14 -7 -24 -30z"/>
<path d="M8409 9943 c-62 -70 -119 -135 -126 -144 -12 -14 9 -24 197 -89 116
-40 213 -70 215 -68 5 5 -153 408 -165 421 -4 5 -58 -49 -121 -120z"/>
<path d="M4200 9975 l0 -75 71 0 70 0 -67 75 c-37 41 -69 75 -71 75 -2 0 -3
-34 -3 -75z"/>
<path d="M11087 9975 l-68 -75 75 0 76 0 -1 33 c0 17 -4 51 -7 74 l-7 42 -68
-74z"/>
<path d="M3050 9846 c0 -8 190 -127 226 -142 23 -10 59 -14 102 -12 l67 3 3
78 3 77 -201 0 c-110 0 -200 -2 -200 -4z"/>
<path d="M3492 9768 l3 -83 90 0 90 0 3 83 3 82 -96 0 -96 0 3 -82z"/>
<path d="M3730 9767 l0 -83 89 -10 c58 -6 95 -6 105 1 11 7 22 6 36 -3 12 -7
54 -12 105 -12 l85 0 0 95 0 95 -210 0 -210 0 0 -83z"/>
<path d="M4192 9758 l3 -93 161 -3 162 -2 6 26 c6 24 -1 36 -61 96 l-67 68
-104 0 -103 0 3 -92z"/>
<path d="M10896 9781 c-60 -60 -68 -73 -62 -95 l7 -26 162 2 162 3 3 93 3 92
-103 0 -104 0 -68 -69z"/>
<path d="M11210 9755 l0 -95 90 0 c96 0 110 8 110 60 0 19 2 20 15 6 8 -8 15
-24 15 -35 0 -20 6 -21 88 -21 55 0 92 4 100 12 7 7 12 43 12 90 l0 78 -215 0
-215 0 0 -95z"/>
<path d="M11682 9768 l3 -83 30 -3 c16 -2 58 -1 92 3 l63 7 0 79 0 79 -95 0
-96 0 3 -82z"/>
<path d="M11920 9770 l0 -80 69 0 c77 0 113 15 258 109 l78 51 -202 0 -203 0
0 -80z"/>
<path d="M4616 9694 c-9 -8 -16 -28 -16 -44 0 -36 24 -60 60 -60 31 0 60 30
60 62 0 46 -72 75 -104 42z"/>
<path d="M6913 9629 c-134 -44 -243 -85 -243 -91 0 -13 315 -559 700 -1213 81
-137 171 -292 200 -343 29 -51 56 -94 59 -97 10 -5 14 1182 5 1274 l-7 72
-130 137 c-198 208 -329 342 -336 342 -3 -1 -115 -37 -248 -81z"/>
<path d="M7975 9478 c-121 -127 -226 -239 -233 -249 -9 -14 -12 -162 -10 -686
l3 -668 37 67 c20 37 235 407 477 821 242 415 441 760 443 767 2 9 -75 41
-232 96 -129 46 -242 83 -250 83 -8 0 -114 -104 -235 -231z"/>
<path d="M10666 9694 c-9 -8 -16 -28 -16 -44 0 -57 60 -80 101 -39 21 21 20
59 -3 86 -15 18 -63 16 -82 -3z"/>
<path d="M5880 9574 l-75 -76 244 -239 c135 -131 247 -237 249 -234 3 2 7 24
9 47 8 65 13 59 13 -16 l0 -67 217 -219 c119 -121 217 -219 219 -218 1 2 -19
95 -45 207 l-48 205 -105 105 c-277 279 -586 581 -594 581 -5 0 -43 -34 -84
-76z"/>
<path d="M9049 9311 l-344 -338 -47 -204 c-25 -112 -45 -205 -44 -206 1 -1 97
93 213 210 l212 212 9 100 c8 90 9 94 12 40 4 -123 -11 -131 255 135 l240 240
-75 75 c-41 41 -78 75 -81 75 -4 0 -162 -152 -350 -339z"/>
<path d="M3977 9614 c-4 -4 -7 -67 -7 -141 l0 -133 90 0 91 0 -3 138 -3 137
-80 3 c-45 1 -84 0 -88 -4z"/>
<path d="M11217 9614 c-4 -4 -7 -67 -7 -141 l0 -133 89 0 89 0 7 103 c4 56 5
118 3 137 l-3 35 -85 3 c-47 1 -89 0 -93 -4z"/>
<path d="M6687 9268 c8 -35 57 -250 109 -478 52 -228 111 -485 130 -570 20
-85 37 -156 38 -157 4 -4 226 368 226 379 0 6 -59 113 -132 237 -279 481 -380
651 -383 651 -2 0 3 -28 12 -62z"/>
<path d="M8647 9263 c-36 -60 -389 -666 -445 -763 l-31 -56 112 -187 c62 -102
114 -186 117 -187 6 0 60 232 191 815 49 220 91 408 93 418 7 28 -1 20 -37
-40z"/>
<path d="M5416 9254 c-17 -16 -21 -51 -8 -70 4 -6 18 -17 31 -24 20 -10 27 -9
50 8 32 24 37 46 17 77 -19 29 -66 34 -90 9z"/>
<path d="M9862 9258 c-7 -7 -12 -26 -12 -43 0 -17 5 -36 12 -43 7 -7 26 -12
43 -12 17 0 36 5 43 12 7 7 12 26 12 43 0 17 -5 36 -12 43 -7 7 -26 12 -43 12
-17 0 -36 -5 -43 -12z"/>
<path d="M5745 9010 l-210 -210 85 -84 85 -85 214 211 213 210 -83 84 c-46 46
-86 84 -89 84 -3 0 -100 -95 -215 -210z"/>
<path d="M9320 9135 l-85 -85 210 -210 211 -211 89 85 90 84 -209 211 c-116
116 -213 211 -216 211 -3 0 -44 -38 -90 -85z"/>
<path d="M5955 8805 l-210 -204 108 -108 c99 -98 110 -106 120 -89 7 10 77
118 157 240 80 121 149 227 154 234 5 8 -13 33 -50 72 -31 33 -60 60 -63 60
-3 -1 -100 -93 -216 -205z"/>
<path d="M9136 8951 l-58 -58 16 -31 c9 -18 82 -131 163 -253 l146 -221 106
106 106 106 -205 205 c-113 113 -207 205 -210 205 -3 0 -32 -26 -64 -59z"/>
<path d="M6350 8796 c-5 -15 -10 -105 -10 -202 l0 -174 95 0 95 0 0 118 0 117
-85 85 -84 84 -11 -28z"/>
<path d="M8923 8738 l-83 -83 0 -118 0 -117 95 0 95 0 0 173 c-1 111 -5 182
-13 200 l-12 28 -82 -83z"/>
<path d="M5392 8657 l-112 -112 85 -85 85 -84 107 104 c60 58 109 110 111 115
1 6 -35 47 -80 92 l-83 83 -113 -113z"/>
<path d="M9770 8683 l-81 -87 111 -110 110 -111 87 88 88 87 -100 101 c-55 55
-108 105 -117 110 -13 7 -33 -8 -98 -78z"/>
<path d="M6190 8565 c-49 -74 -90 -137 -90 -140 0 -3 43 -5 95 -5 l95 0 0 140
c0 77 -2 140 -5 140 -2 0 -45 -61 -95 -135z"/>
<path d="M9080 8561 l0 -141 96 0 c73 0 93 3 88 13 -17 27 -148 224 -166 246
-18 23 -18 22 -18 -118z"/>
<path d="M6578 8510 l3 -90 92 0 92 0 -90 90 c-49 50 -92 90 -95 90 -3 0 -4
-40 -2 -90z"/>
<path d="M8694 8510 l-91 -90 93 0 94 0 0 90 c0 50 -1 90 -2 90 -2 0 -44 -41
-94 -90z"/>
<path d="M5595 8449 l-110 -111 80 -74 c44 -41 87 -74 95 -74 25 0 233 106
254 129 l20 22 -109 109 c-60 61 -112 110 -115 110 -3 0 -55 -50 -115 -111z"/>
<path d="M9536 8451 c-59 -61 -105 -115 -101 -120 20 -34 255 -146 285 -136 8
3 47 36 85 75 l70 70 -110 110 c-60 61 -112 110 -115 110 -4 0 -55 -49 -114
-109z"/>
<path d="M5055 8320 l-190 -190 177 0 176 0 101 108 100 107 -82 83 c-45 45
-84 82 -87 82 -3 0 -91 -85 -195 -190z"/>
<path d="M10025 8429 l-84 -81 101 -109 102 -109 180 0 181 0 -190 190 c-104
105 -193 190 -198 190 -4 0 -45 -36 -92 -81z"/>
<path d="M5940 8188 c-69 -105 -126 -195 -128 -200 -2 -4 105 -8 237 -8 l241
0 0 200 0 200 -112 -1 -113 0 -125 -191z"/>
<path d="M6338 8248 c-2 -73 -1 -162 2 -198 l5 -65 93 91 92 90 0 107 0 107
-94 0 -95 0 -3 -132z"/>
<path d="M6580 8298 l0 -82 75 74 c41 41 75 78 75 82 0 5 -34 8 -75 8 l-75 0
0 -82z"/>
<path d="M8640 8372 c0 -4 34 -41 75 -82 l75 -74 0 82 0 82 -75 0 c-41 0 -75
-3 -75 -8z"/>
<path d="M8840 8274 l0 -107 87 -88 c48 -49 90 -89 95 -89 4 0 8 88 8 195 l0
195 -95 0 -95 0 0 -106z"/>
<path d="M9080 8180 l0 -200 235 0 c129 0 235 3 235 8 0 4 -56 93 -123 197
l-123 190 -112 3 -112 3 0 -201z"/>
<path d="M8097 8323 c-27 -44 -264 -442 -326 -550 l-41 -71 0 -188 0 -187 223
219 c122 121 264 260 315 309 50 49 92 94 92 100 0 10 -222 390 -235 403 -2 2
-14 -13 -28 -35z"/>
<path d="M7226 8328 c-8 -13 -62 -102 -121 -198 l-106 -175 313 -307 c172
-169 316 -307 321 -308 4 0 7 80 7 177 l0 177 -82 140 c-107 184 -308 516
-313 516 -3 0 -11 -10 -19 -22z"/>
<path d="M5372 8227 c-45 -45 -82 -86 -82 -90 0 -18 279 9 299 29 3 3 -26 36
-65 74 l-69 70 -83 -83z"/>
<path d="M9836 8241 l-68 -68 31 -11 c47 -17 181 -34 234 -30 l48 3 -88 88
-88 87 -69 -69z"/>
<path d="M6885 7768 c-286 -435 -638 -989 -632 -995 3 -2 76 31 163 74 l159
78 172 300 c95 165 205 354 243 419 l71 120 -54 54 -54 54 -68 -104z"/>
<path d="M8356 7811 l-48 -49 231 -406 c128 -223 240 -414 249 -425 23 -26
325 -164 318 -145 -11 28 -380 606 -620 972 -37 56 -71 102 -75 102 -4 0 -29
-22 -55 -49z"/>
<path d="M6950 7473 c-80 -140 -190 -332 -245 -425 l-100 -171 -155 -71 c-220
-102 -235 -110 -235 -123 0 -12 353 -332 366 -333 3 0 30 51 59 113 102 219
413 894 477 1036 l65 144 -44 43 -43 43 -145 -256z"/>
<path d="M8227 7689 c-20 -17 -37 -37 -37 -45 0 -24 569 -1267 589 -1287 6 -6
82 55 197 158 164 148 184 170 170 181 -22 16 -362 174 -375 174 -5 0 -65 98
-134 218 -68 119 -178 310 -243 424 -66 114 -121 208 -124 208 -3 0 -22 -14
-43 -31z"/>
<path d="M7237 7549 c-14 -33 -429 -934 -520 -1131 -25 -54 -43 -98 -39 -98 4
1 70 22 147 48 l140 47 184 543 184 544 -41 40 -40 41 -15 -34z"/>
<path d="M8073 7539 l-40 -41 128 -382 c71 -209 154 -453 184 -541 l56 -161
141 -47 c78 -25 143 -45 145 -43 2 2 -15 44 -37 92 -69 148 -367 798 -452 984
-43 96 -80 176 -82 177 -1 1 -20 -16 -43 -38z"/>
<path d="M7370 7459 c0 -4 -237 -708 -348 -1033 l-17 -50 -162 -54 c-90 -29
-163 -57 -162 -60 0 -4 98 -91 217 -194 175 -150 218 -183 224 -170 4 9 48
199 97 422 50 223 120 536 155 695 89 394 86 362 37 410 -23 21 -41 37 -41 34z"/>
<path d="M7948 7420 l-38 -35 85 -390 c47 -214 102 -460 122 -545 20 -85 57
-248 82 -362 l46 -208 210 181 c116 99 216 187 223 194 12 10 -16 23 -157 70
-94 31 -171 62 -171 68 0 16 -351 1051 -358 1057 -4 3 -24 -10 -44 -30z"/>
<path d="M7526 7285 c-4 -16 -45 -199 -91 -409 -46 -210 -118 -533 -160 -720
l-77 -339 24 -23 c12 -13 111 -97 218 -187 l195 -164 3 881 2 881 -54 53 -53
54 -7 -27z"/>
<path d="M7782 7257 l-52 -53 2 -877 3 -878 185 157 c102 86 200 169 218 185
l33 29 -100 432 c-55 238 -130 573 -166 743 -37 171 -68 311 -69 312 -1 1 -26
-21 -54 -50z"/>
<path d="M4015 4493 c-94 -24 -109 -126 -30 -203 33 -32 36 -33 62 -19 15 8
47 32 70 55 35 33 43 47 43 76 0 43 -35 83 -81 92 -33 6 -33 6 -64 -1z"/>
<path d="M3892 3994 c-75 -63 -90 -123 -49 -185 35 -54 87 -74 187 -74 67 0
96 5 133 22 27 13 47 26 45 30 -8 20 -248 243 -260 243 -8 0 -33 -16 -56 -36z"/>
<path d="M2700 4330 l0 -120 156 0 c234 0 284 21 284 117 0 59 -13 81 -63 104
-36 16 -67 19 -209 19 l-168 0 0 -120z"/>
<path d="M2702 3889 l3 -134 195 0 c210 0 239 7 274 57 23 33 21 109 -5 142
-41 52 -68 59 -277 64 l-193 5 3 -134z"/>
<path d="M5070 4329 l0 -121 183 4 c198 4 228 11 253 59 20 40 18 102 -5 131
-31 39 -83 48 -265 48 l-166 0 0 -121z"/>
<path d="M5070 3886 l0 -137 203 3 c170 2 207 6 234 21 62 33 81 113 43 175
-34 56 -71 65 -287 70 l-193 5 0 -137z"/>
<path d="M6737 4344 c-4 -55 -7 -206 -7 -337 l0 -239 178 4 c205 4 239 14 316
93 60 61 87 135 87 235 0 115 -22 173 -89 240 -79 78 -124 91 -323 98 l-156 4
-6 -98z"/>
<path d="M11414 4375 c-4 -11 -41 -99 -81 -195 -40 -96 -73 -180 -73 -187 0
-10 39 -13 165 -13 126 0 165 3 165 13 0 12 -139 349 -158 384 -10 17 -11 17
-18 -2z"/>
<path d="M4614 3001 c-94 -43 -131 -158 -84 -256 29 -61 91 -98 164 -98 141 0
226 138 167 270 -39 85 -159 126 -247 84z"/>
<path d="M7003 2885 l-51 -115 105 0 c80 0 104 3 100 13 -25 59 -91 204 -97
210 -3 4 -29 -44 -57 -108z"/>
<path d="M7500 2910 l0 -110 85 0 c46 0 96 5 110 12 55 25 73 116 33 163 -27
30 -78 44 -165 45 l-63 0 0 -110z"/>
<path d="M9494 3001 c-23 -10 -54 -36 -70 -56 -23 -31 -29 -49 -32 -104 -2
-54 1 -73 20 -106 32 -55 88 -85 161 -85 95 0 156 48 176 138 33 157 -111 278
-255 213z"/>
</g>
</svg>
